{
    "asset" : {
        "generator" : "Khronos glTF Blender I/O v1.6.16",
        "version" : "2.0"
    },
    "scene" : 0,
    "scenes" : [
        {
            "name" : "Scene",
            "nodes" : [
                0
            ]
        }
    ],
    "nodes" : [
        {
            "mesh" : 0,
            "name" : "AlienBody",
            "rotation" : [
                0.0036784939002245665,
                -0.0001547101273899898,
                9.122376650338992e-05,
                0.9999933242797852
            ]
        }
    ],
    "meshes" : [
        {
            "name" : "Sphere.002",
            "primitives" : [
                {
                    "attributes" : {
                        "POSITION" : 0,
                        "NORMAL" : 1,
                        "TEXCOORD_0" : 2
                    },
                    "indices" : 3
                }
            ]
        }
    ],
    "accessors" : [
        {
            "bufferView" : 0,
            "componentType" : 5126,
            "count" : 2554,
            "max" : [
                0.03077450394630432,
                0.3078829050064087,
                0.19511741399765015
            ],
            "min" : [
                -0.23887047171592712,
                -0.10640668869018555,
                -0.20655709505081177
            ],
            "type" : "VEC3"
        },
        {
            "bufferView" : 1,
            "componentType" : 5126,
            "count" : 2554,
            "type" : "VEC3"
        },
        {
            "bufferView" : 2,
            "componentType" : 5126,
            "count" : 2554,
            "type" : "VEC2"
        },
        {
            "bufferView" : 3,
            "componentType" : 5123,
            "count" : 12180,
            "type" : "SCALAR"
        }
    ],
    "bufferViews" : [
        {
            "buffer" : 0,
            "byteLength" : 30648,
            "byteOffset" : 0
        },
        {
            "buffer" : 0,
            "byteLength" : 30648,
            "byteOffset" : 30648
        },
        {
            "buffer" : 0,
            "byteLength" : 20432,
            "byteOffset" : 61296
        },
        {
            "buffer" : 0,
            "byteLength" : 24360,
            "byteOffset" : 81728
        }
    ],
    "buffers" : [
        {
            "byteLength" : 106088,
            "uri" : "data:application/octet-stream;base64,"
        }
    ]
}
